<svg id="Calque_1" data-name="Calque 1" xmlns="http://www.w3.org/2000/svg" viewBox="0 0 90.3 30.5"><defs><style>.cls-1{fill:#44494f;}.cls-2{fill:none;stroke:#f47721;stroke-linecap:round;stroke-miterlimit:10;}</style></defs><title>logo_def</title><path class="cls-1" d="M3.61,4l0,1.22,0,2V8.59l0,3H4l2.5,0H7q.34,0,.35.21a.18.18,0,0,1-.19.2H0L0,9.76V6.85L0,4.49V4Z"/><path class="cls-1" d="M10.37,9v1.82a2.06,2.06,0,0,0,.06.67q.12.27.58.27a2.73,2.73,0,0,0,1.34-.37,3.64,3.64,0,0,0,1.15-1,1.8,1.8,0,0,1,.23-.28.23.23,0,0,1,.15-.06.21.21,0,0,1,.16.07.27.27,0,0,1,.06.18,1.16,1.16,0,0,1-.39.66,4,4,0,0,1-1.28.87,3.71,3.71,0,0,1-1.49.33A3.29,3.29,0,0,1,7.9,10.06,3.27,3.27,0,0,1,7.63,8.8a3.4,3.4,0,0,1,.23-1.22,3.26,3.26,0,0,1,.64-1.06,3.31,3.31,0,0,1,1.13-.81,3.33,3.33,0,0,1,3.3.36A3.32,3.32,0,0,1,14.3,9H10.37Zm1.5-.39V6.88q0-.55,0-.66a.41.41,0,0,0-.08-.2.79.79,0,0,0-.67-.23q-.52,0-.64.26a2.38,2.38,0,0,0-.08.82V8.59l.71,0Z"/><path class="cls-1" d="M15.11,10.9a.5.5,0,0,1,.3.18,2.4,2.4,0,0,0,.83.48,2.94,2.94,0,0,0,1,.2.58.58,0,0,0,.33-.07.24.24,0,0,0,.11-.22.6.6,0,0,0-.15-.34q-.15-.2-.67-.75a19.58,19.58,0,0,1-1.63-1.9,1.88,1.88,0,0,1-.37-1.05,1.55,1.55,0,0,1,.25-.84,2.17,2.17,0,0,1,.71-.68,3.22,3.22,0,0,1,1.73-.47,4.3,4.3,0,0,1,1.52.3q.63.24.63.52a.21.21,0,0,1-.07.16.23.23,0,0,1-.17.07,1,1,0,0,1-.42-.22,2.27,2.27,0,0,0-1.35-.45.75.75,0,0,0-.39.08.28.28,0,0,0-.13.25.9.9,0,0,0,.24.5,13.79,13.79,0,0,0,1,1q.73.71.92.93a3.84,3.84,0,0,1,.38.51A2,2,0,0,1,20,10.19a1.67,1.67,0,0,1-.87,1.46,3.17,3.17,0,0,1-1.76.46,4.05,4.05,0,0,1-2.06-.52,1.92,1.92,0,0,1-.36-.26.31.31,0,0,1-.1-.22Q14.88,10.91,15.11,10.9Z"/><path class="cls-1" d="M34.24,6.55V8l0,3.74V12H30.67l0-4.35,0-3.64h6.21a3.19,3.19,0,0,1,.47,0,.18.18,0,0,1,.13.2q0,.2-.26.2h0l-2.94,0,0,1.82h.64l2.05,0h.45a.83.83,0,0,1,.33,0,.17.17,0,0,1,.08.16q0,.23-.39.23h-.46Z"/><path class="cls-1" d="M41.42,5.59v2.5l0,2.16,0,1.21V12h-3l0-2.16,0-1.9v-1l0-1.11V5.59ZM39.9,3.54q1.55,0,1.55.81A.67.67,0,0,1,41,5a2.45,2.45,0,0,1-1.15.22q-1.47,0-1.47-.83T39.9,3.54Z"/><path class="cls-1" d="M54.77,6.54a6,6,0,0,1,1.42-.85,3.75,3.75,0,0,1,1.39-.26,2,2,0,0,1,1.87.86,1.75,1.75,0,0,1,.21.59,6.3,6.3,0,0,1,.06,1l0,1.55v.36l0,2V12h-3l0-1.85,0-1.86V7.51q0-.42,0-.49a1.32,1.32,0,0,0-.1-.64.41.41,0,0,0-.38-.18,1.48,1.48,0,0,0-.64.17,3.66,3.66,0,0,0-.75.52,5.53,5.53,0,0,1,0,.66v3.11q0,.73,0,1.32h-3V10.71L52,8a14.77,14.77,0,0,0,0-1.5q-.06-.25-.42-.25a1.39,1.39,0,0,0-.61.17,4,4,0,0,0-.75.51l0,2.48,0,2.63h-3V7.83l0-2.24h3v.82a5.25,5.25,0,0,1,1.31-.74,3.72,3.72,0,0,1,1.3-.24,2.4,2.4,0,0,1,1.58.49A1.62,1.62,0,0,1,54.77,6.54Z"/><path class="cls-1" d="M60.92,10.9a.5.5,0,0,1,.3.18,2.4,2.4,0,0,0,.83.48,2.94,2.94,0,0,0,1,.2.58.58,0,0,0,.33-.07.24.24,0,0,0,.11-.22.6.6,0,0,0-.15-.34q-.15-.2-.67-.75A19.58,19.58,0,0,1,61,8.47a1.88,1.88,0,0,1-.37-1.05,1.55,1.55,0,0,1,.25-.84,2.17,2.17,0,0,1,.71-.68,3.22,3.22,0,0,1,1.73-.47,4.3,4.3,0,0,1,1.52.3q.63.24.63.52a.21.21,0,0,1-.07.16.23.23,0,0,1-.17.07,1,1,0,0,1-.42-.22,2.27,2.27,0,0,0-1.35-.45.75.75,0,0,0-.39.08.28.28,0,0,0-.13.25.9.9,0,0,0,.24.5,13.79,13.79,0,0,0,1,1q.73.71.92.93a3.84,3.84,0,0,1,.38.51,2,2,0,0,1,.31,1.07A1.67,1.67,0,0,1,65,11.65a3.17,3.17,0,0,1-1.76.46,4.05,4.05,0,0,1-2.06-.52,1.92,1.92,0,0,1-.36-.26.31.31,0,0,1-.1-.22Q60.69,10.91,60.92,10.9Z"/><path class="cls-1" d="M0,19.32H3.08a10.4,10.4,0,0,1,1.82.12A3.74,3.74,0,0,1,7.33,21a4,4,0,0,1,0,4.6A3.77,3.77,0,0,1,5,27.21a4.86,4.86,0,0,1-.67.09L3,27.32H0l0-3.87Zm3.59.38,0,4.71,0,2.54a8.33,8.33,0,0,0,1.13-.06,3.39,3.39,0,0,0,.79-.25,3.48,3.48,0,0,0,1.65-1.45,3.58,3.58,0,0,0-.09-3.87,3.66,3.66,0,0,0-3.24-1.62Z"/><path class="cls-1" d="M11.35,24.31v1.82a2.06,2.06,0,0,0,.06.67q.12.27.58.27a2.73,2.73,0,0,0,1.34-.37,3.64,3.64,0,0,0,1.15-1,1.8,1.8,0,0,1,.23-.28.23.23,0,0,1,.15-.06.21.21,0,0,1,.16.07.27.27,0,0,1,.06.18,1.16,1.16,0,0,1-.39.66,4,4,0,0,1-1.28.87,3.71,3.71,0,0,1-1.49.33,3.36,3.36,0,0,1-3.32-3.32,3.4,3.4,0,0,1,.23-1.22,3.26,3.26,0,0,1,.64-1.06A3.31,3.31,0,0,1,10.62,21a3.33,3.33,0,0,1,3.3.36,3.32,3.32,0,0,1,1.36,2.89H11.35Zm1.5-.39V22.22q0-.55,0-.66a.41.41,0,0,0-.08-.2.79.79,0,0,0-.67-.23q-.52,0-.64.26a2.38,2.38,0,0,0-.08.82v1.71l.71,0Z"/><path class="cls-1" d="M37.12,25.89v1.44H33.55V27l0-4.12,0-2V19.32h2.68a16.36,16.36,0,0,1,2.49.14,3.8,3.8,0,0,1,1.42.5,3.23,3.23,0,0,1,1.2,1.35,3.13,3.13,0,0,1,.32,1.39,3.27,3.27,0,0,1-.36,1.5,3.1,3.1,0,0,1-1.23,1.32,3.6,3.6,0,0,1-1.84.46A8.72,8.72,0,0,1,37.12,25.89Zm0-6.16v.39l0,3.91v1.46a4.81,4.81,0,0,0,1.2.12,3,3,0,0,0,1.25-.26,2.79,2.79,0,0,0,1-.74A2.88,2.88,0,0,0,39.3,20a6.24,6.24,0,0,0-2-.27Z"/><path class="cls-1" d="M49.38,24.31v1.82a2.06,2.06,0,0,0,.06.67q.12.27.58.27a2.73,2.73,0,0,0,1.34-.37,3.64,3.64,0,0,0,1.15-1,1.8,1.8,0,0,1,.23-.28.23.23,0,0,1,.15-.06.21.21,0,0,1,.16.07.27.27,0,0,1,.06.18,1.16,1.16,0,0,1-.39.66,4,4,0,0,1-1.28.87,3.71,3.71,0,0,1-1.49.33,3.36,3.36,0,0,1-3.32-3.32,3.4,3.4,0,0,1,.23-1.22,3.26,3.26,0,0,1,.64-1.06A3.31,3.31,0,0,1,48.65,21a3.33,3.33,0,0,1,3.3.36,3.32,3.32,0,0,1,1.36,2.89H49.38Zm1.5-.39V22.22q0-.55,0-.66a.41.41,0,0,0-.08-.2.79.79,0,0,0-.67-.23q-.52,0-.64.26a2.38,2.38,0,0,0-.08.82v1.71l.71,0Z"/><path class="cls-1" d="M57.25,20.92v2.5l0,2.16,0,1.21v.53h-3l0-2.16,0-1.9v-1l0-1.11v-.22Zm-1.52-2.05q1.55,0,1.55.81a.67.67,0,0,1-.41.61,2.45,2.45,0,0,1-1.15.22q-1.47,0-1.47-.83T55.73,18.87Z"/><path class="cls-1" d="M61.63,20.92v.81A5.85,5.85,0,0,1,63,21a3.66,3.66,0,0,1,1.28-.24,2.49,2.49,0,0,1,1.41.38,1.41,1.41,0,0,1,.58.71,4.58,4.58,0,0,1,.15,1.39V26l0,1.37h-3l0-1.63v-3q0-.63,0-.75a.57.57,0,0,0-.06-.21.41.41,0,0,0-.4-.19,1.42,1.42,0,0,0-.62.16,3.59,3.59,0,0,0-.72.49v3.15l0,1.72v.25h-3l0-2.3,0-1.52,0-1.31,0-1.27Z"/><path class="cls-1" d="M74.84,18.84l4.68,8.48H75.46l-.57-1.07h-4l-.39.72a2.77,2.77,0,0,1-.24.4.22.22,0,0,1-.17.08c-.13,0-.2-.06-.2-.18A.77.77,0,0,1,70,27l.8-1.37,3.55-6ZM73,22.69l-1,1.72-.82,1.42,1.75,0,1.75,0Z"/><path class="cls-1" d="M83.07,20.92v2.5l0,2.16,0,1.21v.53H80l0-2.16,0-1.9v-1l0-1.11v-.22Zm-1.52-2.05q1.55,0,1.55.81a.67.67,0,0,1-.41.61,2.45,2.45,0,0,1-1.15.22q-1.47,0-1.47-.83T81.55,18.87Z"/><path class="cls-1" d="M87.46,22.74V25l0,2.33h-3V25.81l0-2.15,0-2.39v-.34h3v1.21a8.26,8.26,0,0,1,.94-.9,2,2,0,0,1,1.15-.43,1,1,0,0,1,.54.14.42.42,0,0,1,.21.36.36.36,0,0,1-.13.28.47.47,0,0,1-.32.11.66.66,0,0,1-.27-.07,1,1,0,0,0-.43-.12,1.36,1.36,0,0,0-.81.29A4.4,4.4,0,0,0,87.46,22.74Z"/><line class="cls-2" x1="42.42" y1="0.5" x2="42.42" y2="30"/><line class="cls-2" x1="45.67" y1="0.5" x2="45.67" y2="30"/></svg>